<svg width="132" height="21" viewBox="0 0 132 21" fill="none" xmlns="http://www.w3.org/2000/svg">
<g clip-path="url(#clip0_369_290)">
<path d="M104.662 16.7027C104.617 17.0969 104.539 17.5395 104.443 18.0304C104.347 18.5288 104.239 19.1461 104.139 19.8788C102.779 20.1949 101.438 20.3474 100.108 20.3474C99.3369 20.3474 98.5958 20.273 97.8807 20.1317C97.1655 19.9904 96.5023 19.7338 95.8871 19.3618C95.272 18.9974 94.7347 18.5139 94.2679 17.9077C93.7973 17.3089 93.4527 16.5762 93.2155 15.7171C92.9784 14.858 92.8672 13.9803 92.8672 13.0765C92.8672 11.8715 93.0562 10.7111 93.4452 9.60656C93.8306 8.49454 94.3938 7.58707 95.1386 6.88787C95.8834 6.18123 96.7135 5.70147 97.625 5.45228C98.5403 5.19566 99.5519 5.06921 100.671 5.06921C101.286 5.06921 101.927 5.10641 102.583 5.18079C103.243 5.25517 104.028 5.40394 104.925 5.62708L105.132 8.77347C103.713 8.28254 102.472 8.0408 101.412 8.0408C100.767 8.0408 100.148 8.14494 99.5778 8.36808C98.996 8.58751 98.4995 8.93711 98.0845 9.40572C97.6732 9.87805 97.3767 10.4248 97.1989 11.0459C97.1729 11.1351 97.1507 11.2281 97.1285 11.3211H105.143L104.925 13.9654H96.9951C97.0618 14.4563 97.1841 14.9026 97.3508 15.3043C97.6324 15.9626 98.1141 16.4758 98.8034 16.8403C99.4852 17.201 100.267 17.3833 101.142 17.3833C101.575 17.3833 102.09 17.3275 102.702 17.2271C103.317 17.1192 103.969 16.9518 104.654 16.7064" fill="#173C83"/>
<path d="M104.662 16.7027C104.617 17.0969 104.539 17.5395 104.443 18.0304C104.347 18.5288 104.239 19.1461 104.139 19.8788C102.779 20.1949 101.438 20.3474 100.108 20.3474C99.3369 20.3474 98.5958 20.273 97.8807 20.1317C97.1655 19.9904 96.5023 19.7338 95.8871 19.3618C95.272 18.9974 94.7347 18.5139 94.2679 17.9077C93.7973 17.3089 93.4527 16.5762 93.2155 15.7171C92.9784 14.858 92.8672 13.9803 92.8672 13.0765C92.8672 11.8715 93.0562 10.7111 93.4452 9.60656C93.8306 8.49454 94.3938 7.58707 95.1386 6.88787C95.8834 6.18123 96.7135 5.70147 97.625 5.45228C98.5403 5.19566 99.5519 5.06921 100.671 5.06921C101.286 5.06921 101.927 5.10641 102.583 5.18079C103.243 5.25517 104.028 5.40394 104.925 5.62708L105.132 8.77347C103.713 8.28254 102.472 8.0408 101.412 8.0408C100.767 8.0408 100.148 8.14494 99.5778 8.36808C98.996 8.58751 98.4995 8.93711 98.0845 9.40572C97.6732 9.87805 97.3767 10.4248 97.1989 11.0459C97.1729 11.1351 97.1507 11.2281 97.1285 11.3211H105.143L104.925 13.9654H96.9951C97.0618 14.4563 97.1841 14.9026 97.3508 15.3043C97.6324 15.9626 98.1141 16.4758 98.8034 16.8403C99.4852 17.201 100.267 17.3833 101.142 17.3833C101.575 17.3833 102.09 17.3275 102.702 17.2271C103.317 17.1192 103.969 16.9518 104.654 16.7064" stroke="#173C83" stroke-width="0.888889" stroke-miterlimit="10"/>
<path d="M18.4922 19.9941C18.6367 18.38 18.8146 15.4716 19.0184 11.2727C19.2222 7.07751 19.3519 3.45136 19.3963 0.397949C20.3857 0.416545 21.0934 0.427702 21.501 0.427702C22.068 0.427702 22.7535 0.420264 23.5613 0.397949L23.2204 5.63821L22.7201 17.3274L22.6571 19.9941C21.879 19.9792 21.2194 19.968 20.6747 19.968C20.4968 19.968 19.7706 19.9792 18.4959 19.9941" fill="#173C83"/>
<path d="M18.4922 19.9941C18.6367 18.38 18.8146 15.4716 19.0184 11.2727C19.2222 7.07751 19.3519 3.45136 19.3963 0.397949C20.3857 0.416545 21.0934 0.427702 21.501 0.427702C22.068 0.427702 22.7535 0.420264 23.5613 0.397949L23.2204 5.63821L22.7201 17.3274L22.6571 19.9941C21.879 19.9792 21.2194 19.968 20.6747 19.968C20.4968 19.968 19.7706 19.9792 18.4959 19.9941" stroke="#173C83" stroke-width="0.888889" stroke-miterlimit="10"/>
<path d="M26.6923 8.5652C26.8331 7.8846 26.922 7.41227 26.9554 7.13333C26.9887 6.86184 27.0443 6.45273 27.1332 5.89114C28.4338 5.58989 29.5677 5.3779 30.5682 5.25517C31.5613 5.13616 32.5136 5.06921 33.4436 5.06921C34.4923 5.06921 35.4594 5.19195 36.3302 5.43741C37.2121 5.67543 37.8976 6.06966 38.3942 6.60522C38.887 7.14077 39.1315 7.91063 39.1315 8.91852C39.1315 9.46151 39.0611 10.845 38.9092 13.0802C38.7647 15.3117 38.6721 17.6176 38.6424 19.9978C37.9124 19.9792 37.2529 19.9718 36.6415 19.9718C36.0301 19.9718 35.3779 19.9829 34.5997 19.9978C34.722 18.8449 34.8295 17.506 34.9036 15.9886L35.0926 12.4182C34.7257 12.6562 34.4552 12.8236 34.2588 12.9203C34.0699 13.0133 33.8512 13.1063 33.6178 13.1844C33.3769 13.2625 32.9508 13.3926 32.3542 13.5563C31.7428 13.7236 31.2648 13.8687 30.898 13.9914C30.5348 14.1216 30.2051 14.2592 29.916 14.4191C29.6233 14.5753 29.375 14.7538 29.1749 14.9472C28.9748 15.1406 28.8303 15.3489 28.734 15.5646C28.6451 15.7803 28.6006 16.0146 28.6006 16.2638C28.6006 16.6655 28.7192 17.0113 28.9489 17.3014C29.1861 17.5953 29.4825 17.7961 29.8308 17.9188C30.1865 18.0267 30.6015 18.0862 31.0833 18.0862C31.3908 18.0862 31.7132 18.0601 32.0578 18.0155C32.3913 17.9672 32.8545 17.8407 33.4251 17.651C33.225 18.1903 32.9879 19.0048 32.7211 20.0834C32.043 20.2061 31.5057 20.273 31.1055 20.3028C30.6979 20.3325 30.3385 20.3474 29.9864 20.3474C28.7896 20.3474 27.7965 20.1875 27.0295 19.8602C26.2513 19.5366 25.6807 19.0234 25.3101 18.313C24.947 17.6064 24.7617 16.8923 24.7617 16.1783C24.7617 15.7654 24.8321 15.3601 24.9766 14.9584C25.1174 14.5567 25.3287 14.1885 25.6029 13.8538C25.8808 13.5191 26.2402 13.1955 26.6812 12.8868C27.1184 12.5781 27.752 12.2769 28.5895 11.9868C29.4158 11.693 30.5126 11.3992 31.8762 11.1016C32.2357 11.0273 32.6099 10.9343 33.0064 10.8227C33.3955 10.7186 33.7104 10.607 33.9476 10.5066C34.1773 10.3987 34.3774 10.2574 34.5553 10.0975C34.7294 9.93012 34.8517 9.75532 34.9295 9.57308C35.0148 9.39085 35.0518 9.20489 35.0518 9.01521C35.0518 8.63214 34.9295 8.30858 34.685 8.04824C34.4441 7.78046 34.1329 7.5945 33.7364 7.49409C33.3547 7.39367 32.9212 7.3416 32.458 7.3416C30.7201 7.3416 28.7933 7.75071 26.6886 8.57636" fill="#173C83"/>
<path d="M26.6923 8.5652C26.8331 7.8846 26.922 7.41227 26.9554 7.13333C26.9887 6.86184 27.0443 6.45273 27.1332 5.89114C28.4338 5.58989 29.5677 5.3779 30.5682 5.25517C31.5613 5.13616 32.5136 5.06921 33.4436 5.06921C34.4923 5.06921 35.4594 5.19195 36.3302 5.43741C37.2121 5.67543 37.8976 6.06966 38.3942 6.60522C38.887 7.14077 39.1315 7.91063 39.1315 8.91852C39.1315 9.46151 39.0611 10.845 38.9092 13.0802C38.7647 15.3117 38.6721 17.6176 38.6424 19.9978C37.9124 19.9792 37.2529 19.9718 36.6415 19.9718C36.0301 19.9718 35.3779 19.9829 34.5997 19.9978C34.722 18.8449 34.8295 17.506 34.9036 15.9886L35.0926 12.4182C34.7257 12.6562 34.4552 12.8236 34.2588 12.9203C34.0699 13.0133 33.8512 13.1063 33.6178 13.1844C33.3769 13.2625 32.9508 13.3926 32.3542 13.5563C31.7428 13.7236 31.2648 13.8687 30.898 13.9914C30.5348 14.1216 30.2051 14.2592 29.916 14.4191C29.6233 14.5753 29.375 14.7538 29.1749 14.9472C28.9748 15.1406 28.8303 15.3489 28.734 15.5646C28.6451 15.7803 28.6006 16.0146 28.6006 16.2638C28.6006 16.6655 28.7192 17.0113 28.9489 17.3014C29.1861 17.5953 29.4825 17.7961 29.8308 17.9188C30.1865 18.0267 30.6015 18.0862 31.0833 18.0862C31.3908 18.0862 31.7132 18.0601 32.0578 18.0155C32.3913 17.9672 32.8545 17.8407 33.4251 17.651C33.225 18.1903 32.9879 19.0048 32.7211 20.0834C32.043 20.2061 31.5057 20.273 31.1055 20.3028C30.6979 20.3325 30.3385 20.3474 29.9864 20.3474C28.7896 20.3474 27.7965 20.1875 27.0295 19.8602C26.2513 19.5366 25.6807 19.0234 25.3101 18.313C24.947 17.6064 24.7617 16.8923 24.7617 16.1783C24.7617 15.7654 24.8321 15.3601 24.9766 14.9584C25.1174 14.5567 25.3287 14.1885 25.6029 13.8538C25.8808 13.5191 26.2402 13.1955 26.6812 12.8868C27.1184 12.5781 27.752 12.2769 28.5895 11.9868C29.4158 11.693 30.5126 11.3992 31.8762 11.1016C32.2357 11.0273 32.6099 10.9343 33.0064 10.8227C33.3955 10.7186 33.7104 10.607 33.9476 10.5066C34.1773 10.3987 34.3774 10.2574 34.5553 10.0975C34.7294 9.93012 34.8517 9.75532 34.9295 9.57308C35.0148 9.39085 35.0518 9.20489 35.0518 9.01521C35.0518 8.63214 34.9295 8.30858 34.685 8.04824C34.4441 7.78046 34.1329 7.5945 33.7364 7.49409C33.3547 7.39367 32.9212 7.3416 32.458 7.3416C30.7201 7.3416 28.7933 7.75071 26.6886 8.57636" stroke="#173C83" stroke-width="0.888889" stroke-miterlimit="10"/>
<path d="M52.7164 16.7027C52.6682 17.0969 52.5941 17.5395 52.4978 18.0304C52.3977 18.5288 52.2977 19.1461 52.1902 19.8788C50.8266 20.1949 49.4852 20.3474 48.1587 20.3474C47.3916 20.3474 46.6468 20.273 45.9354 20.1317C45.2128 19.9904 44.5532 19.7338 43.9418 19.3618C43.3267 18.9974 42.7894 18.5139 42.3225 17.9077C41.8519 17.3089 41.511 16.5762 41.2702 15.7171C41.0367 14.858 40.9219 13.9803 40.9219 13.0765C40.9219 11.8715 41.1183 10.7111 41.4999 9.60656C41.889 8.49454 42.4522 7.58707 43.1933 6.88787C43.9381 6.18123 44.7682 5.70147 45.6834 5.45228C46.5912 5.19566 47.6065 5.06921 48.7219 5.06921C49.3444 5.06921 49.9817 5.10641 50.6413 5.18079C51.2972 5.25517 52.079 5.40394 52.9832 5.62708L53.1833 8.77347C51.7641 8.28254 50.5264 8.0408 49.4667 8.0408C48.8145 8.0408 48.2031 8.14494 47.6251 8.36808C47.0507 8.58751 46.5505 8.93711 46.1392 9.40572C45.7242 9.87805 45.424 10.4248 45.2499 11.0459C45.0757 11.6632 44.9868 12.2992 44.9868 12.9463C44.9868 13.8501 45.1239 14.6311 45.4055 15.3043C45.6908 15.9626 46.1725 16.4758 46.8654 16.8403C47.5473 17.201 48.3254 17.3833 49.2073 17.3833C49.6334 17.3833 50.1522 17.3275 50.7636 17.2271C51.3861 17.1192 52.0309 16.9518 52.7164 16.7064" fill="#173C83"/>
<path d="M52.7164 16.7027C52.6682 17.0969 52.5941 17.5395 52.4978 18.0304C52.3977 18.5288 52.2977 19.1461 52.1902 19.8788C50.8266 20.1949 49.4852 20.3474 48.1587 20.3474C47.3916 20.3474 46.6468 20.273 45.9354 20.1317C45.2128 19.9904 44.5532 19.7338 43.9418 19.3618C43.3267 18.9974 42.7894 18.5139 42.3225 17.9077C41.8519 17.3089 41.511 16.5762 41.2702 15.7171C41.0367 14.858 40.9219 13.9803 40.9219 13.0765C40.9219 11.8715 41.1183 10.7111 41.4999 9.60656C41.889 8.49454 42.4522 7.58707 43.1933 6.88787C43.9381 6.18123 44.7682 5.70147 45.6834 5.45228C46.5912 5.19566 47.6065 5.06921 48.7219 5.06921C49.3444 5.06921 49.9817 5.10641 50.6413 5.18079C51.2972 5.25517 52.079 5.40394 52.9832 5.62708L53.1833 8.77347C51.7641 8.28254 50.5264 8.0408 49.4667 8.0408C48.8145 8.0408 48.2031 8.14494 47.6251 8.36808C47.0507 8.58751 46.5505 8.93711 46.1392 9.40572C45.7242 9.87805 45.424 10.4248 45.2499 11.0459C45.0757 11.6632 44.9868 12.2992 44.9868 12.9463C44.9868 13.8501 45.1239 14.6311 45.4055 15.3043C45.6908 15.9626 46.1725 16.4758 46.8654 16.8403C47.5473 17.201 48.3254 17.3833 49.2073 17.3833C49.6334 17.3833 50.1522 17.3275 50.7636 17.2271C51.3861 17.1192 52.0309 16.9518 52.7164 16.7064" stroke="#173C83" stroke-width="0.888889" stroke-miterlimit="10"/>
<path d="M54.582 19.9941L54.8748 16.2675L55.2008 9.10072L55.3676 2.97159C55.3861 1.85585 55.3898 1.00045 55.3898 0.397949C56.394 0.416545 57.1055 0.427702 57.5168 0.427702C58.0059 0.427702 58.6617 0.420264 59.4658 0.397949L59.1583 5.06546L58.8137 12.5037L58.6692 18.0564L58.6543 19.9941C57.8095 19.9792 57.1388 19.968 56.6608 19.968C56.1087 19.968 55.4195 19.9792 54.582 19.9941Z" fill="#173C83" stroke="#173C83" stroke-width="0.888889" stroke-miterlimit="10"/>
<path d="M74.756 19.994C74.1261 17.9782 72.4326 13.1099 69.6758 5.3927C70.5169 5.4113 71.2395 5.42245 71.8472 5.42245C72.4919 5.42245 73.1552 5.41501 73.8333 5.3927L77.1831 16.3753L77.6425 15.122L80.8626 6.90639C81.0145 6.51588 81.1998 6.0138 81.4258 5.3927C82.2114 5.4113 82.9043 5.42245 83.512 5.42245C84.1197 5.42245 84.8349 5.41501 85.6241 5.3927L83.3008 10.4619L79.9214 18.1456L79.1618 19.994C78.3058 19.9791 77.587 19.968 77.0089 19.968C76.3975 19.968 75.6453 19.9791 74.7523 19.994" fill="#173C83"/>
<path d="M74.756 19.994C74.1261 17.9782 72.4326 13.1099 69.6758 5.3927C70.5169 5.4113 71.2395 5.42245 71.8472 5.42245C72.4919 5.42245 73.1552 5.41501 73.8333 5.3927L77.1831 16.3753L77.6425 15.122L80.8626 6.90639C81.0145 6.51588 81.1998 6.0138 81.4258 5.3927C82.2114 5.4113 82.9043 5.42245 83.512 5.42245C84.1197 5.42245 84.8349 5.41501 85.6241 5.3927L83.3008 10.4619L79.9214 18.1456L79.1618 19.994C78.3058 19.9791 77.587 19.968 77.0089 19.968C76.3975 19.968 75.6453 19.9791 74.7523 19.994" stroke="#173C83" stroke-width="0.888889" stroke-miterlimit="10"/>
<path d="M87.2811 2.92692C87.3218 1.93763 87.3366 1.18265 87.3366 0.654532V0.193359C88.2074 0.211955 88.9152 0.223112 89.4599 0.223112C90.2047 0.223112 90.8939 0.208236 91.5386 0.193359C91.509 0.431384 91.4868 0.7066 91.4794 1.01157L91.4089 2.92692C90.6827 2.90833 90.012 2.89717 89.4006 2.89717C88.7892 2.89717 88.0814 2.90833 87.2773 2.92692" fill="#173C83"/>
<path d="M87.2811 2.92692C87.3218 1.93763 87.3366 1.18265 87.3366 0.654532V0.193359C88.2074 0.211955 88.9152 0.223112 89.4599 0.223112C90.2047 0.223112 90.8939 0.208236 91.5386 0.193359C91.509 0.431384 91.4868 0.7066 91.4794 1.01157L91.4089 2.92692C90.6827 2.90833 90.012 2.89717 89.4006 2.89717C88.7892 2.89717 88.0814 2.90833 87.2773 2.92692" stroke="#173C83" stroke-width="0.888889" stroke-miterlimit="10"/>
<path d="M111.066 19.994L109.387 14.8988L106.986 7.88824L106.082 5.3927C106.816 5.4113 107.483 5.42245 108.094 5.42245C108.706 5.42245 109.284 5.41501 109.917 5.3927L113.23 16.1893L117.013 5.3927C117.728 5.4113 118.406 5.42245 119.055 5.42245C119.744 5.42245 120.393 5.41501 121.019 5.3927L123.494 14.8839C123.524 15.0253 123.627 15.4455 123.798 16.1484L124.12 15.2038C124.131 15.1815 124.217 14.9583 124.391 14.5269L126.584 8.88125L127.892 5.39642C128.611 5.41502 129.241 5.42617 129.767 5.42617C130.194 5.42617 130.846 5.41873 131.716 5.39642L127.789 14.4116C126.948 16.3455 126.158 18.2088 125.436 19.9977C124.632 19.9829 124.002 19.9717 123.55 19.9717C123.098 19.9717 122.345 19.9829 121.371 19.9977L118.755 9.54697C118.61 9.9226 118.325 10.7185 117.899 11.9272L115.001 19.994C114.186 19.9791 113.578 19.968 113.159 19.968C112.693 19.968 111.992 19.9791 111.062 19.994" fill="#173C83"/>
<path d="M111.066 19.994L109.387 14.8988L106.986 7.88824L106.082 5.3927C106.816 5.4113 107.483 5.42245 108.094 5.42245C108.706 5.42245 109.284 5.41501 109.917 5.3927L113.23 16.1893L117.013 5.3927C117.728 5.4113 118.406 5.42245 119.055 5.42245C119.744 5.42245 120.393 5.41501 121.019 5.3927L123.494 14.8839C123.524 15.0253 123.627 15.4455 123.798 16.1484L124.12 15.2038C124.131 15.1815 124.217 14.9583 124.391 14.5269L126.584 8.88125L127.892 5.39642C128.611 5.41502 129.241 5.42617 129.767 5.42617C130.194 5.42617 130.846 5.41873 131.716 5.39642L127.789 14.4116C126.948 16.3455 126.158 18.2088 125.436 19.9977C124.632 19.9829 124.002 19.9717 123.55 19.9717C123.098 19.9717 122.345 19.9829 121.371 19.9977L118.755 9.54697C118.61 9.9226 118.325 10.7185 117.899 11.9272L115.001 19.994C114.186 19.9791 113.578 19.968 113.159 19.968C112.693 19.968 111.992 19.9791 111.062 19.994" stroke="#173C83" stroke-width="0.888889" stroke-miterlimit="10"/>
<path d="M86.5232 19.9941C86.664 18.5585 86.7641 17.3572 86.8197 16.394C86.916 14.8617 87.0012 13.0951 87.0754 11.0942C87.1421 9.09702 87.1902 7.18911 87.2199 5.39648C88.1574 5.41508 88.854 5.42624 89.3209 5.42624C89.7507 5.42624 90.4473 5.4188 91.407 5.39648C91.2737 7.06266 91.1699 8.65444 91.0884 10.1644C91.0106 11.6744 90.9476 13.4075 90.9142 15.3638C90.8772 17.3163 90.8586 18.8597 90.8586 19.9978C89.9879 19.9829 89.2912 19.9718 88.7688 19.9718C88.2722 19.9718 87.52 19.9829 86.5195 19.9978" fill="#173C83"/>
<path d="M86.5232 19.9941C86.664 18.5585 86.7641 17.3572 86.8197 16.394C86.916 14.8617 87.0012 13.0951 87.0754 11.0942C87.1421 9.09702 87.1902 7.18911 87.2199 5.39648C88.1574 5.41508 88.854 5.42624 89.3209 5.42624C89.7507 5.42624 90.4473 5.4188 91.407 5.39648C91.2737 7.06266 91.1699 8.65444 91.0884 10.1644C91.0106 11.6744 90.9476 13.4075 90.9142 15.3638C90.8772 17.3163 90.8586 18.8597 90.8586 19.9978C89.9879 19.9829 89.2912 19.9718 88.7688 19.9718C88.2722 19.9718 87.52 19.9829 86.5195 19.9978" stroke="#173C83" stroke-width="0.888889" stroke-miterlimit="10"/>
<path d="M59.1521 11.8119C59.5338 12.4144 59.7598 12.764 59.8302 12.857L62.2647 16.3567C62.5575 16.7658 62.8836 17.253 63.2319 17.796C63.5802 18.3539 64.0323 19.0791 64.5918 19.9903C65.4922 19.9754 66.2481 19.9642 66.8521 19.9642C67.4561 19.9642 68.1972 19.9754 69.0495 19.9903C65.8776 15.6687 63.947 12.95 63.2504 11.838L64.0952 10.8078L68.7864 5.3927C67.8192 5.4113 67.0263 5.42245 66.3963 5.42245C65.9406 5.42245 65.2106 5.41501 64.2249 5.3927C63.6988 6.09933 63.2689 6.67208 62.9243 7.12581C62.5871 7.57583 62.2907 7.95518 62.0424 8.26015L59.1484 11.8119H59.1521Z" fill="#173C83" stroke="#173C83" stroke-width="0.888889" stroke-miterlimit="10"/>
<path d="M16.1663 13.2848C16.0811 12.8831 15.9477 12.5224 15.792 12.1988C15.629 11.8715 15.4141 11.5628 15.1436 11.269C14.8694 10.9752 14.5803 10.7372 14.2802 10.5512C13.9726 10.3616 13.6873 10.2277 13.4242 10.1347C13.1574 10.038 12.798 9.94502 12.3496 9.85204C12.8499 9.68096 13.2464 9.51732 13.5354 9.36112C13.8355 9.20863 14.1431 9.00036 14.4692 8.72514C14.7916 8.45365 15.0732 8.12264 15.3177 7.73585C15.5586 7.35278 15.7476 6.91764 15.8735 6.43416C16.0032 5.95439 16.0699 5.44859 16.0699 4.90931C16.0699 4.48161 16.0181 4.05391 15.9143 3.64481C15.818 3.22827 15.666 2.8452 15.4659 2.48444C15.2584 2.12368 15.0102 1.815 14.7249 1.55094C14.4395 1.2906 14.0875 1.06745 13.6651 0.885213C13.2464 0.702976 12.7721 0.569087 12.2311 0.476109C11.6901 0.38685 10.8897 0.338501 9.81881 0.338501C9.05919 0.338501 8.09207 0.353377 6.92484 0.379411C5.75021 0.412884 4.76826 0.424041 3.96788 0.424041C3.1675 0.424041 2.18184 0.416603 0.984979 0.394288C0.996095 1.08233 0.996095 1.60301 0.996095 1.96376C0.996095 3.12785 0.947924 5.27379 0.840465 8.39042C0.733007 11.5145 0.651487 13.7199 0.581083 15.0142C0.510679 16.3047 0.380987 17.9672 0.203125 19.9904L2.79325 19.9755L6.25045 19.9904C9.05178 19.9904 10.8749 19.9197 11.7345 19.7672C12.6016 19.6222 13.3798 19.3247 14.069 18.8784C14.773 18.4321 15.3177 17.8259 15.7105 17.0597C16.1033 16.2899 16.2997 15.4493 16.2997 14.527C16.2997 14.0919 16.2552 13.679 16.1626 13.2811M5.09064 3.13157H8.50708C9.22223 3.13157 9.77064 3.1762 10.1449 3.26918C10.5191 3.35472 10.8304 3.50348 11.1046 3.70803C11.364 3.91631 11.5604 4.17665 11.6938 4.48905C11.8161 4.80518 11.8828 5.1399 11.8828 5.49322C11.8828 5.84654 11.8272 6.20729 11.7049 6.55689C11.5826 6.90277 11.3973 7.22633 11.1343 7.51643C10.886 7.80652 10.571 8.02223 10.2005 8.15612C9.82993 8.30116 9.47421 8.39414 9.1333 8.43877C8.79611 8.48712 8.14024 8.51315 7.1657 8.51315H4.87201L5.08323 3.13529L5.09064 3.13157ZM11.9939 14.9956C11.9013 15.3006 11.7864 15.5721 11.6382 15.8101C11.4937 16.0518 11.3195 16.2527 11.1306 16.4052C10.9416 16.5576 10.6785 16.699 10.3487 16.8403C10.0189 16.9742 9.66689 17.0709 9.30005 17.1229C8.94062 17.1787 8.42556 17.1973 7.7734 17.1973H4.53111L4.76456 11.2913H8.34774C9.16665 11.2913 9.77064 11.3471 10.1708 11.4587C10.5673 11.574 10.9193 11.7488 11.2121 11.9905C11.5122 12.2397 11.7345 12.5298 11.8865 12.8683C12.0421 13.2067 12.1162 13.5972 12.1162 14.0435C12.1162 14.3708 12.0717 14.6832 11.9939 14.9882" fill="#173C83"/>
<path d="M16.1663 13.2848C16.0811 12.8831 15.9477 12.5224 15.792 12.1988C15.629 11.8715 15.4141 11.5628 15.1436 11.269C14.8694 10.9752 14.5803 10.7372 14.2802 10.5512C13.9726 10.3616 13.6873 10.2277 13.4242 10.1347C13.1574 10.038 12.798 9.94502 12.3496 9.85204C12.8499 9.68096 13.2464 9.51732 13.5354 9.36112C13.8355 9.20863 14.1431 9.00036 14.4692 8.72514C14.7916 8.45365 15.0732 8.12264 15.3177 7.73585C15.5586 7.35278 15.7476 6.91765 15.8735 6.43416C16.0032 5.95439 16.0699 5.44859 16.0699 4.90931C16.0699 4.48161 16.0181 4.05391 15.9143 3.64481C15.818 3.22827 15.666 2.8452 15.4659 2.48444C15.2584 2.12368 15.0102 1.815 14.7249 1.55094C14.4395 1.2906 14.0875 1.06745 13.6651 0.885213C13.2464 0.702976 12.7721 0.569087 12.2311 0.476109C11.6901 0.38685 10.8897 0.338501 9.81881 0.338501C9.05919 0.338501 8.09207 0.353377 6.92484 0.379411C5.75021 0.412884 4.76826 0.424041 3.96788 0.424041C3.1675 0.424041 2.18184 0.416603 0.984979 0.394288C0.996095 1.08233 0.996095 1.60301 0.996095 1.96376C0.996095 3.12785 0.947924 5.27379 0.840465 8.39042C0.733007 11.5145 0.651487 13.7199 0.581083 15.0142C0.510679 16.3047 0.380987 17.9672 0.203125 19.9904L2.79325 19.9755L6.25045 19.9904C9.05178 19.9904 10.8749 19.9197 11.7345 19.7672C12.6016 19.6222 13.3798 19.3247 14.069 18.8784C14.773 18.4321 15.3177 17.8259 15.7105 17.0597C16.1033 16.2899 16.2997 15.4493 16.2997 14.527C16.2997 14.0919 16.2552 13.679 16.1626 13.2811M11.9939 14.9956C11.9013 15.3006 11.7864 15.5721 11.6382 15.8101C11.4937 16.0518 11.3195 16.2527 11.1306 16.4052C10.9416 16.5576 10.6785 16.699 10.3487 16.8403C10.0189 16.9742 9.66689 17.0709 9.30005 17.1229C8.94062 17.1787 8.42556 17.1973 7.7734 17.1973H4.53111L4.76456 11.2913H8.34774C9.16665 11.2913 9.77064 11.3471 10.1708 11.4587C10.5673 11.574 10.9193 11.7488 11.2121 11.9905C11.5122 12.2397 11.7345 12.5298 11.8865 12.8683C12.0421 13.2067 12.1162 13.5972 12.1162 14.0435C12.1162 14.3708 12.0717 14.6832 11.9939 14.9882M5.09064 3.13157H8.50708C9.22223 3.13157 9.77064 3.1762 10.1449 3.26918C10.5191 3.35472 10.8304 3.50348 11.1046 3.70803C11.364 3.91631 11.5604 4.17665 11.6938 4.48905C11.8161 4.80518 11.8828 5.1399 11.8828 5.49322C11.8828 5.84654 11.8272 6.20729 11.7049 6.55689C11.5826 6.90277 11.3973 7.22633 11.1343 7.51643C10.886 7.80652 10.571 8.02223 10.2005 8.15612C9.82993 8.30116 9.47421 8.39414 9.1333 8.43877C8.79611 8.48712 8.14024 8.51315 7.1657 8.51315H4.87201L5.08323 3.13529L5.09064 3.13157Z" stroke="#173C83" stroke-width="0.888889" stroke-miterlimit="10"/>
</g>
<defs>
<clipPath id="clip0_369_290">
<rect width="132" height="20.5333" fill="white"/>
</clipPath>
</defs>
</svg>
